<?xml version="1.0" standalone="no"?>
<!DOCTYPE svg PUBLIC "-//W3C//DTD SVG 20010904//EN"
 "http://www.w3.org/TR/2001/REC-SVG-20010904/DTD/svg10.dtd">
<svg version="1.0" xmlns="http://www.w3.org/2000/svg"
 width="256.000000pt" height="256.000000pt" viewBox="0 0 256.000000 256.000000"
 preserveAspectRatio="xMidYMid meet">

<g transform="translate(0.000000,256.000000) scale(0.100000,-0.100000)"
fill="#000000" stroke="none">
<path d="M0 1280 l0 -1280 1280 0 1280 0 0 1280 0 1280 -1280 0 -1280 0 0
-1280z m1421 930 c169 -32 345 -117 469 -229 280 -251 377 -626 260 -1003 -60
-193 -224 -388 -420 -501 -154 -89 -275 -121 -460 -121 -116 0 -149 4 -235 27
-625 169 -897 886 -541 1421 133 200 353 348 591 399 82 18 259 21 336 7z"/>
<path d="M1140 2173 c-327 -55 -582 -282 -696 -619 -36 -106 -45 -327 -20
-455 66 -327 305 -592 613 -681 103 -30 351 -33 453 -5 153 41 334 161 436
289 96 119 171 285 193 425 17 112 11 138 -9 39 -41 -195 -89 -299 -192 -418
-96 -111 -261 -215 -403 -253 -96 -26 -276 -31 -389 -10 -302 54 -564 303
-636 605 -24 104 -26 259 -5 368 20 97 86 236 157 327 233 301 675 397 1022
223 250 -125 402 -339 452 -638 l14 -85 -5 86 c-7 116 -63 286 -129 393 -167
267 -435 418 -736 415 -52 -1 -106 -4 -120 -6z"/>
<path d="M1090 1939 c-53 -53 -62 -59 -80 -49 -23 12 -22 35 1 35 8 0 13 -8
11 -20 -3 -18 -2 -19 13 -4 32 32 -13 73 -46 43 -42 -38 -17 -117 43 -144 71
-32 160 -22 217 26 l29 24 53 -32 c45 -29 61 -33 119 -33 77 0 112 18 137 71
24 49 9 89 -32 89 -26 0 -30 -4 -30 -27 1 -39 -9 -35 -45 16 -17 24 -43 49
-56 55 -38 17 -89 13 -117 -10 l-27 -20 -22 20 c-15 15 -35 21 -65 21 -40 0
-48 -5 -103 -61z m480 -29 c0 -21 -15 -27 -25 -10 -7 12 2 30 16 30 5 0 9 -9
9 -20z"/>
<path d="M792 1827 c-28 -30 -28 -38 4 -68 15 -13 180 -186 367 -384 187 -198
352 -371 366 -385 14 -14 50 -52 80 -84 70 -75 77 -67 9 11 -29 32 -96 110
-148 172 -52 63 -138 164 -190 225 -52 62 -142 168 -200 236 -175 205 -253
295 -260 298 -3 1 -16 -8 -28 -21z"/>
<path d="M1693 1793 c-26 -32 -113 -134 -194 -228 -196 -230 -197 -231 -176
-252 19 -19 0 -37 247 227 85 90 175 184 199 208 l43 43 -28 30 c-15 16 -31
29 -35 29 -4 0 -29 -26 -56 -57z"/>
<path d="M1695 1511 c-79 -20 -115 -62 -115 -134 0 -44 4 -53 36 -83 22 -21
56 -40 92 -50 117 -32 144 -53 122 -94 -25 -46 -101 -33 -128 23 -12 25 -18
27 -73 27 -73 0 -80 -12 -48 -77 32 -65 87 -93 181 -93 147 0 236 84 207 194
-15 57 -57 91 -136 111 -82 22 -123 41 -123 58 0 49 92 50 110 1 9 -22 13 -23
72 -17 35 3 65 8 67 10 3 2 -5 24 -17 49 -17 33 -32 49 -60 61 -43 18 -143 26
-187 14z"/>
<path d="M614 1497 c-2 -7 -3 -114 -2 -237 l3 -225 160 0 c122 0 167 4 190 15
42 22 75 75 75 123 0 34 -6 46 -41 79 -41 39 -41 40 -21 54 27 18 43 76 32
112 -16 53 -22 61 -61 76 -52 21 -327 23 -335 3z m251 -97 c39 -32 -2 -80 -67
-80 l-38 0 0 43 c0 24 3 47 8 51 10 11 80 0 97 -14z m17 -187 c42 -38 15 -72
-66 -80 l-56 -6 0 52 0 51 52 0 c34 0 58 -6 70 -17z"/>
<path d="M1083 1068 c-82 -95 -162 -191 -178 -213 -36 -50 -44 -58 174 173
161 170 193 212 161 212 -5 0 -76 -78 -157 -172z"/>
<path d="M1170 1070 c0 -3 22 -68 49 -146 l48 -140 -23 -46 c-18 -35 -30 -47
-54 -51 -35 -8 -56 -43 -46 -81 9 -36 39 -50 74 -34 25 13 27 18 27 78 0 64
25 130 48 130 6 0 30 -20 54 -44 44 -45 45 -45 38 -98 -9 -71 7 -86 88 -85 51
1 56 3 40 15 -10 7 -22 29 -28 50 -8 29 -18 39 -44 48 -23 7 -40 23 -52 47
-11 20 -25 40 -32 44 -16 10 -57 68 -57 80 0 4 5 1 10 -7 5 -8 10 -10 10 -5 0
6 8 58 19 118 10 59 15 107 12 107 -7 0 -52 -156 -51 -177 0 -31 -19 -7 -55
68 -37 75 -75 141 -75 129z m60 -426 c13 -32 13 -30 -6 -48 -37 -38 -90 5 -65
53 17 31 59 28 71 -5z m236 -19 c9 -35 -2 -55 -29 -55 -27 0 -47 17 -47 40 0
43 65 56 76 15z"/>
</g>
</svg>
