<?xml version="1.0" standalone="no"?>
<!DOCTYPE svg PUBLIC "-//W3C//DTD SVG 20010904//EN"
 "http://www.w3.org/TR/2001/REC-SVG-20010904/DTD/svg10.dtd">
<svg version="1.0" xmlns="http://www.w3.org/2000/svg"
 width="359.000000pt" height="354.000000pt" viewBox="0 0 359.000000 354.000000"
 preserveAspectRatio="xMidYMid meet">

<g transform="translate(0.000000,354.000000) scale(0.100000,-0.100000)"
fill="#000000" stroke="none">
<path d="M1637 3370 c-261 -25 -474 -103 -706 -257 -287 -191 -519 -509 -624
-853 -55 -179 -58 -201 -64 -430 -6 -249 5 -343 62 -540 76 -264 197 -466 404
-671 235 -234 445 -350 763 -421 89 -20 130 -23 308 -23 160 0 224 4 290 18
292 63 550 202 763 413 141 140 216 244 302 419 109 224 160 400 172 603 8
128 -10 118 -25 -16 -14 -124 -58 -300 -102 -404 -174 -419 -557 -742 -1010
-853 -404 -98 -839 -21 -1180 208 -329 221 -536 531 -622 931 -31 145 -31 407
0 553 133 618 611 1067 1234 1159 146 21 391 14 523 -15 492 -108 881 -436
1066 -898 60 -149 99 -334 99 -467 0 -31 5 -56 10 -56 16 0 12 165 -6 271 -57
335 -211 640 -441 873 -291 294 -618 442 -1020 460 -59 2 -148 1 -196 -4z"/>
<path d="M1562 3039 c-24 -12 -64 -47 -90 -78 -107 -127 -131 -142 -172 -101
-26 26 -25 46 2 61 18 10 24 8 35 -7 11 -15 10 -20 -4 -36 -23 -25 -9 -34 22
-14 46 30 19 106 -39 106 -42 0 -68 -31 -74 -88 -14 -149 97 -232 294 -220 95
6 155 30 217 87 l45 42 53 -46 c74 -63 160 -89 273 -83 141 7 222 68 240 179
13 84 -51 153 -112 118 -15 -8 -28 -25 -30 -37 -4 -28 23 -72 43 -72 17 0 20
16 5 25 -15 9 -12 42 5 49 16 6 45 -18 45 -38 0 -18 -33 -46 -54 -46 -30 0
-52 17 -109 89 -66 81 -98 106 -158 122 -63 17 -113 5 -160 -38 l-40 -36 -32
30 c-18 17 -42 36 -54 42 -34 18 -104 13 -151 -10z"/>
<path d="M2475 2613 c-82 -97 -231 -272 -329 -387 -229 -270 -300 -356 -305
-368 -4 -12 39 -58 55 -58 11 0 834 860 842 879 4 10 -88 111 -101 111 -7 0
-79 -80 -162 -177z"/>
<path d="M921 2738 c-22 -24 -41 -46 -41 -51 0 -4 291 -315 648 -689 356 -375
718 -758 805 -850 88 -92 164 -168 169 -168 13 0 12 1 -257 317 -252 295 -405
475 -520 612 -85 101 -241 284 -440 517 -66 77 -160 189 -210 247 -49 59 -95
107 -101 107 -7 0 -30 -19 -53 -42z"/>
<path d="M2527 2179 c-126 -30 -197 -116 -197 -239 0 -133 75 -200 288 -256
131 -35 171 -61 172 -115 0 -53 -81 -101 -145 -85 -40 10 -92 63 -102 104 l-9
37 -104 -4 c-133 -4 -141 -8 -129 -62 22 -96 82 -174 161 -210 48 -22 66 -24
203 -24 132 0 156 3 195 22 146 68 211 214 157 355 -34 87 -104 131 -292 183
-154 42 -165 48 -165 85 0 37 38 65 91 65 52 0 86 -22 106 -67 l17 -38 60 1
c34 1 86 4 116 7 53 7 55 8 52 35 -8 68 -59 145 -116 174 -17 9 -53 22 -81 29
-56 15 -219 17 -278 3z"/>
<path d="M610 1749 l0 -431 278 5 c166 2 291 9 313 16 103 32 164 119 163 231
-1 95 -40 155 -123 189 -31 13 -42 31 -18 31 33 0 89 76 100 138 20 103 -58
219 -161 241 -31 6 -156 11 -302 11 l-250 0 0 -431z m415 247 c58 -25 71 -76
31 -123 -23 -27 -29 -28 -108 -28 l-83 0 -3 69 c-2 38 -1 75 2 83 7 18 116 17
161 -1z m52 -342 c39 -29 44 -84 10 -118 -27 -26 -97 -40 -177 -34 l-45 3 -3
88 -3 89 95 -4 c77 -2 100 -7 123 -24z"/>
<path d="M1538 1499 c-100 -117 -221 -258 -268 -313 -47 -56 -115 -137 -153
-180 -37 -44 -64 -82 -61 -85 3 -3 20 10 37 29 17 19 173 185 346 368 174 183
317 338 319 345 1 7 -6 21 -17 31 -19 17 -24 12 -203 -195z"/>
<path d="M1926 1399 c-24 -72 -106 -360 -106 -373 0 -24 43 -104 47 -86 21
117 73 464 69 468 -3 2 -8 -1 -10 -9z"/>
<path d="M1602 1378 c3 -7 41 -120 84 -251 l79 -238 50 -23 c87 -40 145 -102
173 -185 10 -27 9 -37 -3 -54 -8 -12 -15 -41 -15 -65 0 -82 75 -126 150 -87
28 14 33 14 69 -4 34 -18 41 -19 51 -6 10 12 10 15 -3 15 -29 0 -58 36 -72 89
-17 64 -48 100 -93 105 -44 6 -52 12 -74 63 -11 25 -49 76 -84 115 -55 60 -81
103 -182 304 -64 129 -121 234 -126 234 -4 0 -6 -6 -4 -12z m218 -452 c0 -8
-4 -17 -9 -21 -12 -7 -24 12 -16 25 9 15 25 12 25 -4z m301 -315 c35 -44 5
-121 -48 -121 -37 0 -60 16 -72 51 -13 38 2 77 37 95 31 15 58 7 83 -25z"/>
<path d="M1739 818 c-34 -73 -65 -108 -98 -108 -51 0 -101 -57 -101 -115 0
-42 28 -85 66 -101 32 -13 39 -13 78 5 24 10 47 25 52 32 9 16 6 107 -6 129
-11 21 16 118 45 162 30 45 30 48 7 48 -13 0 -27 -17 -43 -52z m-50 -162 c56
-59 4 -161 -68 -134 -55 20 -69 91 -26 133 31 31 65 32 94 1z"/>
</g>
</svg>
